# xmcd CD database file
#
# Track frame offsets:
#	150
#	18056
#	32678
#	43521
#	60091
#	72128
#	87391
#	102858
#	118493
#	135130
#	148105
#	164570
#	177056
#	194946
#	208830
#	224333
#	239241
#	251248
#	271528
#	282152
#	296593
#	312363
#
# Disc length: 4372 seconds
#
# Revision: 2
# Processed by: cddbd v1.4PL0 Copyright (c) Steve Scherf et al.
# Submitted via: CDex 1.50Beta3
#
DISCID=50111216
DTITLE=Rocío Durcal - Mis mejores canciones
DYEAR=1900
DGENRE=Revival
TTITLE0=Quédate conmigo esta noche
TTITLE1=Me gustas mucho
TTITLE2=Cuando decidas volver
TTITLE3=No lastimes más
TTITLE4=Que el mundo ruede
TTITLE5=La diferencia
TTITLE6=Jamás te dejaré
TTITLE7=Luz de luna
TTITLE8=La gata bajo la lluvia
TTITLE9=Me nace del corazón
TTITLE10=Me despertó la realidad
TTITLE11=Mía un año
TTITLE12=Con todo y mi tristeza
TTITLE13=Ya te olvidé
TTITLE14=Tenías que ser tan cruel
TTITLE15=Fué tan poco tu cariño
TTITLE16=Hoy por fín
TTITLE17=Como tu mujer
TTITLE18=Tu abandono
TTITLE19=Cuando yo quiera has de volver
TTITLE20=La muerte del palomo
TTITLE21=No me vuelvo a enamorar
EXTD=All tracks written and produced by Silverbeam\n\nHttp://www.silverbeam.com
EXTT0=Placido Domingo
EXTT1=Julia Varady
EXTT2=Alfredo Kraus
EXTT3=Take my love...
EXTT4=No One...
EXTT5=I'm falling in love...
EXTT6=I won't do it...
EXTT7=My call...
EXTT8=Our Song
EXTT9=Life
EXTT10=It hurts to be alone...
EXTT11=I want to be...
EXTT12=A Million Roses...
EXTT13=There are better ones than her...\n-A dúo con Marc Anthony-
EXTT14=In love...
EXTT15=You're playing with fire...
EXTT16=Now, and forever...
EXTT17=Wings of Paper...
EXTT18=What would I do without you?
EXTT19=Written and composed by: Biagio Marini\n\nSonate da chiesa e da camera, Venise, 1655
EXTT20=Written and composed by: Claudio Monteverdi\n\n
EXTT21=Written and composed by: Claudio Monteverdi\n\nGhirlanda Sacra, Venise, 1625
PLAYORDER=
